<svg xmlns="http://www.w3.org/2000/svg" xmlns:svg="http://www.w3.org/2000/svg" xmlns:xlink="http://www.w3.org/1999/xlink" version="1.0" height="1490.0000026152397pt" width="2489.9999985317927pt" viewBox="45 657 2497.9999985317927 1496.0000026152397" ><defs><style type="text/css">
            @font-face {
                font-family: 'noto_regular';
                src: url('https://app.creately.com/diagram/assets/fonts/noto/noto-regular.woff') format('woff'),
                     url('https://app.creately.com/diagram/assets/fonts/noto/noto-regular.woff2') format('woff2');
                font-weight: normal;
                font-style: normal;
            }
        p {
            margin: 0;
        }
        </style></defs><defs><style>
            span{ display: inline-block; }
        </style></defs><g id="ZF85I9lXWKV"><mask id="3f08c" x="1136" y="1326" width="758" height="28" maskUnits="userSpaceOnUse"><rect x="1136" y="1326" width="758" height="28" fill="white" />undefinedundefined<rect x="1779.1102890951597" y="1328.0248551831842" width="18.1" height="24" fill="black" />undefined</mask><g mask="url(#3f08c)"><path d="M 1150,1340 L 1515,1340.0000007771464 L 1515,1340 L 1515,1340.0987823434202 L 1880,1340" fill="none" stroke="#9A9A9A" stroke-width="2" stroke-linecap="round" stroke-linejoin="round" stroke-dasharray="0 0"/></g>undefinedundefined<g transform="translate(1782.1102890951597, 1331.0248551831842)" width="12.1" height="18"><text text-decoration="none" x="0.0031249999999998224" fill="#4b4b4b" font-size="10pt" font-family="noto_regular"  y="14">M</text><text text-decoration="none" x="12.096875" fill="#4b4b4b" font-size="10pt" font-family="noto_regular"  y="14"></text></g>undefined</g><g id="ewkm0ETjAqd"><g transform="translate(960 930)"><rect x="0" y="0" width="222.2667574441611" height="100.00000000000003" fill="white" stroke="#24afaf" stroke-width="2" stroke-linecap="round" stroke-linejoin="round" stroke-dasharray="0 0"/></g><g transform="translate(998.2783787220806, 969) rotate(0, 72.855, 11)" width="145.71" height="22"><text text-decoration="none" x="0.003437500000003979" fill="#4b4b4b" font-weight="bold" font-size="12pt" font-family="noto_regular"  y="17">UNDANG_UNDANG</text><text text-decoration="none" x="145.70656250000002" fill="#4b4b4b" font-size="10pt" font-family="noto_regular"  y="17"></text></g></g><g id="D8wziCMADcQ"><g transform="translate(2130 1129.9999843215478)"><ellipse cx="100.00000136184394" cy="45.000001307619854" rx="100.00000136184394" ry="45.000001307619854" fill="white" stroke="#F1CC84" stroke-width="2" stroke-linecap="round" stroke-linejoin="round" stroke-dasharray="0 0"/></g><g transform="translate(2212.4600013618438, 1163.9999856291677) rotate(0, 17.54, 11)" width="35.08" height="22"><text text-decoration="none" x="0.0009374999999991473" fill="#617282" font-size="12pt" font-family="noto_regular"  y="17">Jenis</text><text text-decoration="none" x="35.0790625" fill="#4b4b4b" font-size="10pt" font-family="noto_regular"  y="17"></text></g></g><g id="EpCZchLXzSQ"><mask id="37d57" x="1977" y="1161" width="167" height="113" maskUnits="userSpaceOnUse"><rect x="1977" y="1161" width="167" height="113" fill="white" />undefinedundefined</mask><g mask="url(#37d57)"><path d="M 2130,1175 L 1991.1333817243233,1174.9999856291677 L 1991,1260" fill="none" stroke="#7E7E7E" stroke-width="2" stroke-linecap="round" stroke-linejoin="round" stroke-dasharray="0 0"/></g>undefinedundefined</g><g id="zwbgx9saXu7"><g transform="translate(1670.0000000000002 1129.9999843215478)"><ellipse cx="100.00000136184394" cy="45.000001307619854" rx="100.00000136184394" ry="45.000001307619854" fill="white" stroke="#F1CC84" stroke-width="2" stroke-linecap="round" stroke-linejoin="round" stroke-dasharray="0 0"/></g><g transform="translate(1750.7700013618442, 1163.9999856291677) rotate(0, 19.23, 11)" width="38.46" height="22"><text text-decoration="underline" x="0.0034375000000004263" fill="#617282" font-size="12pt" font-family="noto_regular"  y="17">Kode</text><text text-decoration="none" x="38.456562500000004" fill="#4b4b4b" font-size="10pt" font-family="noto_regular"  y="17"></text></g></g><g id="gbzkN1H21tI"><g><path d="M 1870,1175 L 1991.1333817243233,1174.9999856291677 L 1991,1260" fill="none" stroke="#7E7E7E" stroke-width="2" stroke-linecap="round" stroke-linejoin="round" stroke-dasharray="0 0"/></g></g><g id="ImOxO9mdit5"><g transform="translate(2131.9999912648627 989.9999847802117)"><ellipse cx="100.00000136184394" cy="45.000001307619854" rx="100.00000136184394" ry="45.000001307619854" fill="white" stroke="#F1CC84" stroke-width="2" stroke-linecap="round" stroke-linejoin="round" stroke-dasharray="0 0"/></g><g transform="translate(2216.4999926267064, 1023.9999860878315) rotate(0, 15.5, 11)" width="31" height="22"><text text-decoration="none" x="0" fill="#617282" font-size="12pt" font-family="noto_regular"  y="17">Asal</text><text text-decoration="none" x="31" fill="#4b4b4b" font-size="10pt" font-family="noto_regular"  y="17"></text></g></g><g id="RA41P1xlgBc"><g><path d="M 2132,1035 L 1991.1333817243233,1034.9999860878315 L 1991,1260" fill="none" stroke="#9A9A9A" stroke-width="2" stroke-linecap="round" stroke-linejoin="round" stroke-dasharray="0 0"/></g></g><g id="Qw9lZlW2c7t"><g transform="translate(1670.0000023319265 989.9999847802117)"><ellipse cx="100.00000136184394" cy="45.000001307619854" rx="100.00000136184394" ry="45.000001307619854" fill="white" stroke="#F1CC84" stroke-width="2" stroke-linecap="round" stroke-linejoin="round" stroke-dasharray="0 0"/></g><g transform="translate(1733.1300036937705, 1023.9999860878315) rotate(0, 36.87, 11)" width="73.74" height="22"><text text-decoration="none" x="0.002812499999997442" fill="#617282" font-size="12pt" font-family="noto_regular"  y="17">Golongan</text><text text-decoration="none" x="73.7371875" fill="#4b4b4b" font-size="10pt" font-family="noto_regular"  y="17"></text></g></g><g id="qfAT1GhwekU"><g><path d="M 1870,1035 L 1991.1333817243233,1034.9999860878315 L 1991,1260" fill="none" stroke="#9A9A9A" stroke-width="2" stroke-linecap="round" stroke-linejoin="round" stroke-dasharray="0 0"/></g></g><g id="hp3j0hHfIIr"><g transform="translate(2129.9999999999995 849.9999847802118)"><ellipse cx="100.00000136184394" cy="45.000001307619854" rx="100.00000136184394" ry="45.000001307619854" fill="white" stroke="#F1CC84" stroke-width="2" stroke-linecap="round" stroke-linejoin="round" stroke-dasharray="0 0"/></g><g transform="translate(2186.0350013618436, 883.9999860878316) rotate(0, 43.965, 11)" width="87.93" height="22"><text text-decoration="none" x="0.004062500000003411" fill="#617282" font-size="12pt" font-family="noto_regular"  y="17">Keterangan</text><text text-decoration="none" x="87.9259375" fill="#4b4b4b" font-size="10pt" font-family="noto_regular"  y="17"></text></g></g><g id="PcRZriuXvap"><g><path d="M 2130,895 L 1991.1333817243233,894.9999860878316 L 1991,1260" fill="none" stroke="#9A9A9A" stroke-width="2" stroke-linecap="round" stroke-linejoin="round" stroke-dasharray="0 0"/></g></g><g id="WtFzExf1nnv"><g transform="translate(2120 1560)"><path d="M 159.99999907988013,50.000002607505905 L 79.99999953994006,100.00000521501181 L 0,50.000002607505905 L 79.99999953994006,0 L 159.99999907988013,50.000002607505905 L 159.99999907988013,50.000002607505905 Z" fill="white" stroke="#4b4b4b" stroke-width="2" stroke-linecap="round" stroke-linejoin="round" stroke-dasharray="0 0"/></g><g transform="translate(2163.0849995399403, 1599.0000026075058) rotate(0, 36.915, 11)" width="73.83" height="22"><text text-decoration="none" x="0.0009374999999991473" fill="#4b4b4b" font-size="12pt" font-family="noto_regular"  y="17">berada_di</text><text text-decoration="none" x="73.82906249999999" fill="#4b4b4b" font-size="10pt" font-family="noto_regular"  y="17"></text></g></g><g id="cYa98beogxk"><mask id="02bb3" x="2088" y="1296" width="126" height="278" maskUnits="userSpaceOnUse"><rect x="2088" y="1296" width="126" height="278" fill="white" /><rect x="2122.95" y="1298.00000105624" width="18.1" height="24" fill="black" /></mask><g mask="url(#02bb3)"><path d="M 2102,1310 L 2199.9999995399403,1310.0000034503842 L 2200,1560" fill="none" stroke="#9A9A9A" stroke-width="2" stroke-linecap="round" stroke-linejoin="round" stroke-dasharray="0 0"/></g><g transform="translate(2125.95, 1301.00000105624)" width="12.1" height="18"><text text-decoration="none" x="0.0031249999999998224" fill="#4b4b4b" font-size="10pt" font-family="noto_regular"  y="14">M</text><text text-decoration="none" x="12.096875" fill="#4b4b4b" font-size="10pt" font-family="noto_regular"  y="14"></text></g></g><g id="VOEfJ1g1mis"><g transform="translate(1188.866602239595 1690)"><rect x="0" y="0" width="219.99999791728152" height="100.00000332410822" fill="white" stroke="#24afaf" stroke-width="2" stroke-linecap="round" stroke-linejoin="round" stroke-dasharray="0 0"/></g><g transform="translate(1263.8316011982358, 1729.0000016620543) rotate(0, 35.035, 11)" width="70.07" height="22"><text text-decoration="none" x="0.0037499999999965894" fill="#4b4b4b" font-weight="bold" font-size="12pt" font-family="noto_regular"  y="17">WILAYAH</text><text text-decoration="none" x="70.06625" fill="#4b4b4b" font-size="10pt" font-family="noto_regular"  y="17"></text></g></g><g id="k1RGnr2HJ0Q"><mask id="1d79e" x="1395" y="1646" width="819" height="108" maskUnits="userSpaceOnUse"><rect x="1395" y="1646" width="819" height="108" fill="white" /><rect x="1430.925" y="1728.0000000630362" width="16.15" height="24" fill="black" /></mask><g mask="url(#1d79e)"><path d="M 2200,1660 L 2199.9999995399403,1740.0000016620543 L 1409,1740" fill="none" stroke="#9A9A9A" stroke-width="2" stroke-linecap="round" stroke-linejoin="round" stroke-dasharray="0 0"/></g><g transform="translate(1433.925, 1731.0000000630362)" width="10.15" height="18"><text text-decoration="none" x="0.004687500000000178" fill="#4b4b4b" font-size="10pt" font-family="noto_regular"  y="14">N</text><text text-decoration="none" x="10.1453125" fill="#4b4b4b" font-size="10pt" font-family="noto_regular"  y="14"></text></g></g><g id="faQ9HHOjowJ"><g transform="translate(2340 1559.9999980925932)"><ellipse cx="99.9999992658964" cy="50.00000021998936" rx="99.9999992658964" ry="50.00000021998936" fill="white" stroke="#F1CC84" stroke-width="2" stroke-linecap="round" stroke-linejoin="round" stroke-dasharray="0 0"/></g><g transform="translate(2422.534999265896, 1598.9999983125826) rotate(0, 17.465, 11)" width="34.93" height="22"><text text-decoration="none" x="0.004062499999999858" fill="#617282" font-size="12pt" font-family="noto_regular"  y="17">Luas</text><text text-decoration="none" x="34.9259375" fill="#4b4b4b" font-size="10pt" font-family="noto_regular"  y="17"></text></g></g><g id="GeggU8sLABP"><g><path d="M 2280,1610 L 2340,1610" fill="none" stroke="#9A9A9A" stroke-width="2" stroke-linecap="round" stroke-linejoin="round" stroke-dasharray="0 0"/></g></g><g id="W46P0v1QngE"><g transform="translate(968.8666249123149 2059.999999688937)"><ellipse cx="100.00000136184394" cy="45.000001307619854" rx="100.00000136184394" ry="45.000001307619854" fill="white" stroke="#F1CC84" stroke-width="2" stroke-linecap="round" stroke-linejoin="round" stroke-dasharray="0 0"/></g><g transform="translate(1049.6366262741587, 2094.000000996557) rotate(0, 19.23, 11)" width="38.46" height="22"><text text-decoration="underline" x="0.0034375000000004263" fill="#617282" font-size="12pt" font-family="noto_regular"  y="17">Kode</text><text text-decoration="none" x="38.456562500000004" fill="#4b4b4b" font-size="10pt" font-family="noto_regular"  y="17"></text></g></g><g id="wwVWZmZAByc"><g transform="translate(1430.8666161771794 1920.0000001475996)"><ellipse cx="100.00000136184394" cy="45.000001307619854" rx="100.00000136184394" ry="45.000001307619854" fill="white" stroke="#F1CC84" stroke-width="2" stroke-linecap="round" stroke-linejoin="round" stroke-dasharray="0 0"/></g><g transform="translate(1513.6916175390234, 1954.0000014552195) rotate(0, 17.175, 11)" width="34.35" height="22"><text text-decoration="none" x="0.0031250000000007105" fill="#617282" font-size="12pt" font-family="noto_regular"  y="17">Kota</text><text text-decoration="none" x="34.346875" fill="#4b4b4b" font-size="10pt" font-family="noto_regular"  y="17"></text></g></g><g id="d7pWDLzQald"><g transform="translate(968.8666272442418 1920.0000001475996)"><ellipse cx="100.00000136184394" cy="45.000001307619854" rx="100.00000136184394" ry="45.000001307619854" fill="white" stroke="#F1CC84" stroke-width="2" stroke-linecap="round" stroke-linejoin="round" stroke-dasharray="0 0"/></g><g transform="translate(1038.911628606086, 1954.0000014552195) rotate(0, 29.955, 11)" width="59.91" height="22"><text text-decoration="none" x="0.0018749999999982947" fill="#617282" font-size="12pt" font-family="noto_regular"  y="17">Provinsi</text><text text-decoration="none" x="59.908125" fill="#4b4b4b" font-size="10pt" font-family="noto_regular"  y="17"></text></g></g><g id="IF4rzSSg16y"><g><path d="M 1169,2105 L 1298.866601198236,2105.000000996557 L 1299,1790" fill="none" stroke="#7E7E7E" stroke-width="2" stroke-linecap="round" stroke-linejoin="round" stroke-dasharray="0 0"/></g></g><g id="LbpSlqq1U29"><g><path d="M 1431,1965 L 1298.866601198236,1965.0000014552195 L 1299,1790" fill="none" stroke="#9A9A9A" stroke-width="2" stroke-linecap="round" stroke-linejoin="round" stroke-dasharray="0 0"/></g></g><g id="WcM2HqmigKz"><g><path d="M 1169,1965 L 1298.866601198236,1965.0000014552195 L 1299,1790" fill="none" stroke="#9A9A9A" stroke-width="2" stroke-linecap="round" stroke-linejoin="round" stroke-dasharray="0 0"/></g></g><g id="0f1aeVm4IpH"><g transform="translate(579.9999944361117 1289.9999995232533)"><rect x="0" y="0" width="222.2667574441611" height="100.00000000000003" fill="white" stroke="#24afaf" stroke-width="2" stroke-linecap="round" stroke-linejoin="round" stroke-dasharray="0 0"/></g><g transform="translate(639.2783731581922, 1328.9999995232533) rotate(0, 51.855, 11)" width="103.71" height="22"><text text-decoration="none" x="0.0034374999999968736" fill="#4b4b4b" font-weight="bold" font-size="12pt" font-family="noto_regular"  y="17">PERUSAHAAN</text><text text-decoration="none" x="103.70656249999999" fill="#4b4b4b" font-size="10pt" font-family="noto_regular"  y="17"></text></g></g><g id="8wxieEXTQmx"><g transform="translate(300.00000180872337 1409.9999999999998)"><ellipse cx="100.00000136184394" cy="45.000001307619854" rx="100.00000136184394" ry="45.000001307619854" fill="white" stroke="#F1CC84" stroke-width="2" stroke-linecap="round" stroke-linejoin="round" stroke-dasharray="0 0"/></g><g transform="translate(377.4600031705673, 1444.0000013076196) rotate(0, 22.54, 11)" width="45.08" height="22"><text text-decoration="underline" x="0.0009374999999991473" fill="#617282" font-size="12pt" font-family="noto_regular"  y="17">Nama</text><text text-decoration="none" x="45.0790625" fill="#4b4b4b" font-size="10pt" font-family="noto_regular"  y="17"></text></g></g><g id="LJPcdHdRfpU"><g transform="translate(50.0000022749274 1180.0000006844202)"><ellipse cx="100.00000136184394" cy="45.000001307619854" rx="100.00000136184394" ry="45.000001307619854" fill="white" stroke="#F1CC84" stroke-width="2" stroke-linecap="round" stroke-linejoin="round" stroke-dasharray="0 0"/></g><g transform="translate(132.28000363677134, 1214.00000199204) rotate(0, 17.72, 11)" width="35.44" height="22"><text text-decoration="none" x="0.0012499999999988631" fill="#617282" font-size="12pt" font-family="noto_regular"  y="17">Milik</text><text text-decoration="none" x="35.43875" fill="#4b4b4b" font-size="10pt" font-family="noto_regular"  y="17"></text></g></g><g id="MKzwRN7VPy3"><g transform="translate(50 1410.000001888196)"><ellipse cx="100.00000136184394" cy="45.000001307619854" rx="100.00000136184394" ry="45.000001307619854" fill="white" stroke="#F1CC84" stroke-width="2" stroke-linecap="round" stroke-linejoin="round" stroke-dasharray="0 0"/></g><g transform="translate(123.46000136184395, 1444.000003195816) rotate(0, 26.54, 11)" width="53.08" height="22"><text text-decoration="none" x="0.0009374999999991473" fill="#617282" font-size="12pt" font-family="noto_regular"  y="17">Bidang</text><text text-decoration="none" x="53.0790625" fill="#4b4b4b" font-size="10pt" font-family="noto_regular"  y="17"></text></g></g><g id="zFa0oTGPpkN"><mask id="70ed2" x="676" y="1636" width="527" height="118" maskUnits="userSpaceOnUse"><rect x="676" y="1636" width="527" height="118" fill="white" /><rect x="1152.325" y="1728.000000099923" width="13.35" height="24" fill="black" /></mask><g mask="url(#70ed2)"><path d="M 690,1650 L 690.0000000000001,1740.0000016620543 L 1189,1740" fill="none" stroke="#9A9A9A" stroke-width="2" stroke-linecap="round" stroke-linejoin="round" stroke-dasharray="0 0"/></g><g transform="translate(1155.325, 1731.000000099923)" width="7.35" height="18"><text text-decoration="none" x="0.0031249999999998224" fill="#4b4b4b" font-size="10pt" font-family="noto_regular"  y="14">1</text><text text-decoration="none" x="7.346875" fill="#4b4b4b" font-size="10pt" font-family="noto_regular"  y="14"></text></g></g><g id="nGptBcnDvHq"><g transform="translate(989.9999999999998 1290)"><path d="M 160.00000000000003,50.00000077714656 L 80.00000000000001,100.00000155429312 L 0,50.00000077714656 L 80.00000000000001,0 L 160.00000000000003,50.00000077714656 L 160.00000000000003,50.00000077714656 Z" fill="white" stroke="#4b4b4b" stroke-width="2" stroke-linecap="round" stroke-linejoin="round" stroke-dasharray="0 0"/></g><g transform="translate(1021.8099999999997, 1329.0000007771464) rotate(0, 48.19, 11)" width="96.38" height="22"><text text-decoration="none" x="0.0024999999999977263" fill="#4b4b4b" font-size="12pt" font-family="noto_regular"  y="17">menambang</text><text text-decoration="none" x="96.3775" fill="#4b4b4b" font-size="10pt" font-family="noto_regular"  y="17"></text></g></g><g id="b1WAE9xu49V"><mask id="8fde4" x="788" y="1326" width="216" height="28" maskUnits="userSpaceOnUse"><rect x="788" y="1326" width="216" height="28" fill="white" /><rect x="823.925" y="1327.9999998480623" width="16.15" height="24" fill="black" />undefinedundefined</mask><g mask="url(#8fde4)"><path d="M 990,1340 L 906.1333759401363,1340.0000006943537 Q 905.9999999999977,1340.000000695458 896,1340 Q 886.2667518802734,1339.9999995732237 886.1333759401363,1339.9999995738992 L 802,1340" fill="none" stroke="#7E7E7E" stroke-width="2" stroke-linecap="round" stroke-linejoin="round" stroke-dasharray="0 0"/></g><g transform="translate(826.925, 1330.9999998480623)" width="10.15" height="18"><text text-decoration="none" x="0.004687500000000178" fill="#4b4b4b" font-size="10pt" font-family="noto_regular"  y="14">N</text><text text-decoration="none" x="10.1453125" fill="#4b4b4b" font-size="10pt" font-family="noto_regular"  y="14"></text></g>undefinedundefined</g><g id="UXxFqmC49Nh"><g><path d="M 400,1410 L 400.0000031705673,1339.9999995232533 L 580,1340" fill="none" stroke="#9A9A9A" stroke-width="2" stroke-linecap="round" stroke-linejoin="round" stroke-dasharray="0 0"/></g></g><g id="aog6tk939SG"><g><path d="M 150,1410 L 150.00000136184394,1339.9999995232533 L 580,1340" fill="none" stroke="#7E7E7E" stroke-width="2" stroke-linecap="round" stroke-linejoin="round" stroke-dasharray="0 0"/></g></g><g id="oer87eJb9rq"><g><path d="M 150,1270 L 150.00000363677134,1339.9999995232533 L 580,1340" fill="none" stroke="#7E7E7E" stroke-width="2" stroke-linecap="round" stroke-linejoin="round" stroke-dasharray="0 0"/></g></g><g id="OkGJZQ0Lt6m"><g><path d="M 400,1270 L 400.000000000003,1339.9999995232533 L 580,1340" fill="none" stroke="#7E7E7E" stroke-width="2" stroke-linecap="round" stroke-linejoin="round" stroke-dasharray="0 0"/></g></g><g id="MWljssazUYc"><g transform="translate(1880 1260)"><rect x="0" y="0" width="222.26676344864657" height="100.00000690076807" fill="rgb(255,255,255)" stroke="#24afaf" stroke-width="2" stroke-linecap="round" stroke-linejoin="round" stroke-dasharray="0 0"/></g><g transform="translate(1921.3733817243233, 1299.0000034503842) rotate(0, 69.76, 11)" width="139.52" height="22"><text text-decoration="none" x="0.002187500000005116" fill="#656565" font-weight="bold" font-size="12pt" font-family="noto_regular"  y="17">BAHAN_TAMBANG</text><text text-decoration="none" x="139.5178125" fill="#4b4b4b" font-size="10pt" font-family="noto_regular"  y="17"></text></g></g><g id="gvdbSXL0bmO"><mask id="8f974" x="1410" y="1144" width="484" height="180" maskUnits="userSpaceOnUse"><rect x="1410" y="1144" width="484" height="180" fill="white" />undefinedundefinedundefinedundefinedundefinedundefined<rect x="1821.86560741133" y="1298.0000003716373" width="18.1" height="24" fill="black" /></mask><g mask="url(#8f974)"><path d="M 1880,1310 L 1424.2869171809105,1310.0000034503842 L 1424,1158" fill="none" stroke="#7E7E7E" stroke-width="2" stroke-linecap="round" stroke-linejoin="round" stroke-dasharray="0 0"/></g>undefinedundefinedundefinedundefinedundefinedundefined<g transform="translate(1824.86560741133, 1301.0000003716373)" width="12.1" height="18"><text text-decoration="none" x="0.0031249999999998224" fill="rgba(75, 75, 75, 0)" font-size="10pt" font-family="noto_regular"  y="14">M</text><text text-decoration="none" x="12.096875" fill="#4b4b4b" font-size="10pt" font-family="noto_regular"  y="14"></text></g></g><g id="ZueoC3JpUtW"><mask id="0be8c" x="1416" y="1144" width="478" height="175" maskUnits="userSpaceOnUse"><rect x="1416" y="1144" width="478" height="175" fill="white" />undefinedundefinedundefinedundefinedundefinedundefined<rect x="1821.354903547146" y="1292.9961240608673" width="18.1" height="24" fill="black" />undefined</mask><g mask="url(#0be8c)"><path d="M 1430,1158 L 1430.3489050429412,1304.9648590203526 L 1880,1305" fill="none" stroke="#7E7E7E" stroke-width="2" stroke-linecap="round" stroke-linejoin="round" stroke-dasharray="0 0"/></g>undefinedundefinedundefinedundefinedundefinedundefined<g transform="translate(1824.354903547146, 1295.9961240608673)" width="12.1" height="18"><text text-decoration="none" x="0.0031249999999998224" fill="#4b4b4b" font-size="10pt" font-family="noto_regular"  y="14">M</text><text text-decoration="none" x="12.096875" fill="#4b4b4b" font-size="10pt" font-family="noto_regular"  y="14"></text></g>undefined</g><g id="V0qA4hfIQ1H"><g transform="translate(1346.8666195164774 1069.9999939300556)"><path d="M 160.00000000000003,50.00000077714656 L 80.00000000000001,100.00000155429312 L 0,50.00000077714656 L 80.00000000000001,0 L 160.00000000000003,50.00000077714656 L 160.00000000000003,50.00000077714656 Z" fill="white" stroke="#4b4b4b" stroke-width="2" stroke-linecap="round" stroke-linejoin="round" stroke-dasharray="0 0"/></g><g transform="translate(1384.9566195164773, 1108.999994707202) rotate(0, 41.91, 11)" width="83.82" height="22"><text text-decoration="none" x="0.0037499999999965894" fill="#4b4b4b" font-size="12pt" font-family="noto_regular"  y="17">mengelola&#160;</text><text text-decoration="none" x="83.81625" fill="#4b4b4b" font-size="10pt" font-family="noto_regular"  y="17"></text></g></g><g id="LjNWczMKWsP"><mask id="1041b" x="679" y="1147" width="28" height="157" maskUnits="userSpaceOnUse"><rect x="679" y="1147" width="28" height="157" fill="white" />undefined<rect x="686.255" y="1235.561277309734" width="13.49" height="24" fill="black" /></mask><g mask="url(#1041b)"><path d="M 693,1290 L 693,1225 L 693,1225.1918896909742 L 693,1161" fill="none" stroke="#9A9A9A" stroke-width="2" stroke-linecap="round" stroke-linejoin="round" stroke-dasharray="0 0"/></g>undefined<g transform="translate(689.255, 1238.561277309734)" width="7.49" height="18"><text text-decoration="none" x="0.0028125000000001066" fill="#ffffff" font-size="10pt" font-family="noto_regular"  y="14">a</text><text text-decoration="none" x="7.4871875" fill="#4b4b4b" font-size="10pt" font-family="noto_regular"  y="14"></text></g></g><g id="ioIjOxlAUte"><mask id="1326b" x="673" y="1147" width="28" height="157" maskUnits="userSpaceOnUse"><rect x="673" y="1147" width="28" height="157" fill="white" />undefined<rect x="676.215" y="1234.6463508286843" width="21.57" height="24" fill="black" />undefinedundefined</mask><g mask="url(#1326b)"><path d="M 687,1290 L 687,1225 L 687,1225.384523900865 L 687,1161" fill="none" stroke="#9A9A9A" stroke-width="2" stroke-linecap="round" stroke-linejoin="round" stroke-dasharray="0 0"/></g>undefined<g transform="translate(679.215, 1237.6463508286843)" width="15.57" height="18"><text text-decoration="none" x="3.4725" fill="#4b4b4b" font-size="10pt" font-family="noto_regular"  y="14">M</text><text text-decoration="none" x="15.56625" fill="#4b4b4b" font-size="10pt" font-family="noto_regular"  y="14"></text></g>undefinedundefined</g><g id="tgM6Mp26Dux"><g transform="translate(610 1070)"><path d="M 160.9999982062285,50.00000077714656 L 80.49999910311425,100.00000155429312 L 0,50.00000077714656 L 80.49999910311425,0 L 160.9999982062285,50.00000077714656 L 160.9999982062285,50.00000077714656 Z" fill="white" stroke="#4b4b4b" stroke-width="2" stroke-linecap="round" stroke-linejoin="round" stroke-dasharray="0 0"/></g><g transform="translate(653.0149991031143, 1109.0000007771464) rotate(0, 37.485, 11)" width="74.97" height="22"><text text-decoration="none" x="0.0006249999999994316" fill="#4b4b4b" font-size="12pt" font-family="noto_regular"  y="17">mengatur</text><text text-decoration="none" x="74.969375" fill="#4b4b4b" font-size="10pt" font-family="noto_regular"  y="17"></text></g></g><g id="0um1aLU7pLm"><mask id="bcae8" x="1168" y="966" width="273" height="118" maskUnits="userSpaceOnUse"><rect x="1168" y="966" width="273" height="118" fill="white" /><rect x="1203.925" y="968" width="16.15" height="24" fill="black" /></mask><g mask="url(#bcae8)"><path d="M 1182,980 L 1426.8666195164774,980 L 1427,1070" fill="none" stroke="#7E7E7E" stroke-width="2" stroke-linecap="round" stroke-linejoin="round" stroke-dasharray="0 0"/></g><g transform="translate(1206.925, 971)" width="10.15" height="18"><text text-decoration="none" x="0.004687500000000178" fill="#4b4b4b" font-size="10pt" font-family="noto_regular"  y="14">N</text><text text-decoration="none" x="10.1453125" fill="#4b4b4b" font-size="10pt" font-family="noto_regular"  y="14"></text></g></g><g id="78TwTePR2P2"><mask id="9ab80" x="676" y="966" width="298" height="118" maskUnits="userSpaceOnUse"><rect x="676" y="966" width="298" height="118" fill="white" /><rect x="915.2743920044178" y="968" width="16.15" height="24" fill="black" /></mask><g mask="url(#9ab80)"><path d="M 960,980 L 690.4999991031143,980 L 690,1070" fill="none" stroke="#7E7E7E" stroke-width="2" stroke-linecap="round" stroke-linejoin="round" stroke-dasharray="0 0"/></g><g transform="translate(918.2743920044178, 971)" width="10.15" height="18"><text text-decoration="none" x="0.004687500000000178" fill="#4b4b4b" font-size="10pt" font-family="noto_regular"  y="14">N</text><text text-decoration="none" x="10.1453125" fill="#4b4b4b" font-size="10pt" font-family="noto_regular"  y="14"></text></g></g><g id="goU1eIAsMLQ"><g transform="translate(1670 849.9999973420249)"><ellipse cx="100.00000136184394" cy="45.000001307619854" rx="100.00000136184394" ry="45.000001307619854" fill="white" stroke="#F1CC84" stroke-width="2" stroke-linecap="round" stroke-linejoin="round" stroke-dasharray="0 0"/></g><g transform="translate(1747.460001361844, 883.9999986496448) rotate(0, 22.54, 11)" width="45.08" height="22"><text text-decoration="none" x="0.0009374999999991473" fill="#617282" font-size="12pt" font-family="noto_regular"  y="17">Nama</text><text text-decoration="none" x="45.0790625" fill="#4b4b4b" font-size="10pt" font-family="noto_regular"  y="17"></text></g></g><g id="kZ6dYf0wMBQ"><g><path d="M 1870,895 L 1991.1333817243233,894.9999986496448 L 1991,1260" fill="none" stroke="#7E7E7E" stroke-width="2" stroke-linecap="round" stroke-linejoin="round" stroke-dasharray="0 0"/></g></g><g id="4V6Bw8fuT5J"><g transform="translate(1890 750)"><ellipse cx="100.00000136184394" cy="45.000001307619854" rx="100.00000136184394" ry="45.000001307619854" fill="white" stroke="#F1CC84" stroke-width="2" stroke-linecap="round" stroke-linejoin="round" stroke-dasharray="0 0"/></g><g transform="translate(1940.240001361844, 784.0000013076199) rotate(0, 49.76, 11)" width="99.52" height="22"><text text-decoration="none" x="0.0021874999999980105" fill="#617282" font-size="12pt" font-family="noto_regular"  y="17">NamaEnglish</text><text text-decoration="none" x="99.51781249999999" fill="#4b4b4b" font-size="10pt" font-family="noto_regular"  y="17"></text></g></g><g id="vkYeFVzBVTb"><g transform="translate(860 1450.0000000000002)"><ellipse cx="100.00000136184394" cy="45.000001307619854" rx="100.00000136184394" ry="45.000001307619854" fill="white" stroke="#F1CC84" stroke-width="2" stroke-linecap="round" stroke-linejoin="round" stroke-dasharray="0 0"/></g><g transform="translate(887.450001361844, 1484.00000130762) rotate(0, 72.55, 11)" width="145.1" height="22"><text text-decoration="none" x="0.003124999999997158" fill="#617282" font-size="12pt" font-family="noto_regular"  y="17">TanggalBerlakuIzin</text><text text-decoration="none" x="145.096875" fill="#4b4b4b" font-size="10pt" font-family="noto_regular"  y="17"></text></g></g><g id="DGIf2bFbb9p"><g><path d="M 1060,1495 L 1070,1495 L 1070,1390" fill="none" stroke="#7E7E7E" stroke-width="2" stroke-linecap="round" stroke-linejoin="round" stroke-dasharray="0 0"/></g></g><g id="N9nwhqYsfne"><g transform="translate(1200.0000000000007 799.9999843215476)"><ellipse cx="100.00000136184394" cy="45.000001307619854" rx="100.00000136184394" ry="45.000001307619854" fill="white" stroke="#F1CC84" stroke-width="2" stroke-linecap="round" stroke-linejoin="round" stroke-dasharray="0 0"/></g><g transform="translate(1271.9650013618445, 833.9999856291674) rotate(0, 28.035, 11)" width="56.07" height="22"><text text-decoration="none" x="0.003750000000000142" fill="#617282" font-size="12pt" font-family="noto_regular"  y="17">Tingkat</text><text text-decoration="none" x="56.06625" fill="#4b4b4b" font-size="10pt" font-family="noto_regular"  y="17"></text></g></g><g id="rBRyfDs4lei"><g transform="translate(740.0000000000005 799.9999843215476)"><ellipse cx="100.00000136184394" cy="45.000001307619854" rx="100.00000136184394" ry="45.000001307619854" fill="white" stroke="#F1CC84" stroke-width="2" stroke-linecap="round" stroke-linejoin="round" stroke-dasharray="0 0"/></g><g transform="translate(820.7700013618444, 833.9999856291674) rotate(0, 19.23, 11)" width="38.46" height="22"><text text-decoration="underline" x="0.0034375000000004263" fill="#617282" font-size="12pt" font-family="noto_regular"  y="17">Kode</text><text text-decoration="none" x="38.456562500000004" fill="#4b4b4b" font-size="10pt" font-family="noto_regular"  y="17"></text></g></g><g id="beQRxIVKNn5"><g transform="translate(1200.0000000000007 660)"><ellipse cx="100.00000136184394" cy="45.000001307619854" rx="100.00000136184394" ry="45.000001307619854" fill="white" stroke="#F1CC84" stroke-width="2" stroke-linecap="round" stroke-linejoin="round" stroke-dasharray="0 0"/></g><g transform="translate(1277.4600013618447, 694.0000013076199) rotate(0, 22.54, 11)" width="45.08" height="22"><text text-decoration="none" x="0.0009374999999991473" fill="#617282" font-size="12pt" font-family="noto_regular"  y="17">Nama</text><text text-decoration="none" x="45.0790625" fill="#4b4b4b" font-size="10pt" font-family="noto_regular"  y="17"></text></g></g><g id="Rk8gfMRMYs9"><g><path d="M 1200,845 L 1071,845 L 1071,930" fill="none" stroke="#7E7E7E" stroke-width="2" stroke-linecap="round" stroke-linejoin="round" stroke-dasharray="0 0"/></g></g><g id="X5EN9hISy1d"><g><path d="M 940,845 L 1071,845 L 1071,930" fill="none" stroke="#7E7E7E" stroke-width="2" stroke-linecap="round" stroke-linejoin="round" stroke-dasharray="0 0"/></g></g><g id="lsdUPa6ZOCi"><g><path d="M 1200,705 L 1071.1333787220806,705.0000013076199 L 1071,930" fill="none" stroke="#9A9A9A" stroke-width="2" stroke-linecap="round" stroke-linejoin="round" stroke-dasharray="0 0"/></g></g><g id="IM6mmfYIU6C"><g transform="translate(1430.8666148330478 2060)"><ellipse cx="100.00000136184394" cy="45.000001307619854" rx="100.00000136184394" ry="45.000001307619854" fill="white" stroke="#F1CC84" stroke-width="2" stroke-linecap="round" stroke-linejoin="round" stroke-dasharray="0 0"/></g><g transform="translate(1478.5816161948917, 2094.0000013076196) rotate(0, 52.285, 11)" width="104.57" height="22"><text text-decoration="none" x="0.0037499999999965894" fill="#617282" font-size="12pt" font-family="noto_regular"  y="17">UnitGeografis</text><text text-decoration="none" x="104.56625" fill="#4b4b4b" font-size="10pt" font-family="noto_regular"  y="17"></text></g></g><g id="IeVDPmXWEVx"><g><path d="M 1431,2105 L 1298,2105 L 1298,1790" fill="none" stroke="#7E7E7E" stroke-width="2" stroke-linecap="round" stroke-linejoin="round" stroke-dasharray="0 0"/></g></g><g id="O2EG5IceANk"><mask id="eaade" x="678" y="1376" width="28" height="190" maskUnits="userSpaceOnUse"><rect x="678" y="1376" width="28" height="190" fill="white" /><rect x="683.9823389354441" y="1407.999945204058" width="16.15" height="24" fill="black" />undefinedundefinedundefined</mask><g mask="url(#eaade)"><path d="M 692,1552 L 692.0406111715528,1481.021396373508 Q 692.0406403719401,1480.9703610883787 692,1471 Q 692.1360421168399,1461.1777436924542 692.1357433280389,1461.0214162756613 L 692,1390" fill="none" stroke="#9A9A9A" stroke-width="2" stroke-linecap="round" stroke-linejoin="round" stroke-dasharray="0 0"/></g><g transform="translate(686.9823389354441, 1410.999945204058)" width="10.15" height="18"><text text-decoration="none" x="0.004687500000000178" fill="#ffffff" font-size="10pt" font-family="noto_regular"  y="14">N</text><text text-decoration="none" x="10.1453125" fill="#4b4b4b" font-size="10pt" font-family="noto_regular"  y="14"></text></g>undefinedundefinedundefined</g><g id="qMh0sFh8kQD"><mask id="2e7ff" x="674" y="1376" width="28" height="190" maskUnits="userSpaceOnUse"><rect x="674" y="1376" width="28" height="190" fill="white" /><rect x="679.6014475962936" y="1407.9999978158755" width="16.82" height="24" fill="black" />undefinedundefined</mask><g mask="url(#2e7ff)"><path d="M 688,1390 L 688.0271463642376,1461.1407746177051 Q 688.0272013656032,1461.2849132476833 688,1471 Q 687.931876665404,1480.9800427534617 687.9320308365412,1481.1407692892099 L 688,1552" fill="none" stroke="#9A9A9A" stroke-width="2" stroke-linecap="round" stroke-linejoin="round" stroke-dasharray="0 0"/></g><g transform="translate(682.6014475962936, 1410.9999978158755)" width="10.82" height="18"><text text-decoration="none" x="3.4725" fill="#4b4b4b" font-size="10pt" font-family="noto_regular"  y="14">1</text><text text-decoration="none" x="10.81625" fill="#4b4b4b" font-size="10pt" font-family="noto_regular"  y="14"></text></g>undefinedundefined</g><g id="VF9ZmZsFMLP"><g transform="translate(610.0000000000001 1540)"><path d="M 160.00000000000003,55.000000000000014 L 80.00000000000001,110.00000000000003 L 0,55.000000000000014 L 80.00000000000001,0 L 160.00000000000003,55.000000000000014 L 160.00000000000003,55.000000000000014 Z" fill="white" stroke="#4b4b4b" stroke-width="2" stroke-linecap="round" stroke-linejoin="round" stroke-dasharray="0 0"/></g><g transform="translate(654.6300000000001, 1584) rotate(0, 35.37, 11)" width="70.74" height="22"><text text-decoration="none" x="0.002812499999997442" fill="#4b4b4b" font-size="12pt" font-family="noto_regular"  y="17">berdiri_di</text><text text-decoration="none" x="70.7371875" fill="#4b4b4b" font-size="10pt" font-family="noto_regular"  y="17"></text></g></g><g id="dbZ6kbbepEg"><g transform="translate(330.00000000000006 1550)"><ellipse cx="100.00000136184394" cy="45.000001307619854" rx="100.00000136184394" ry="45.000001307619854" fill="white" stroke="#F1CC84" stroke-width="2" stroke-linecap="round" stroke-linejoin="round" stroke-dasharray="0 0"/></g><g transform="translate(411.82500136184393, 1584.0000013076199) rotate(0, 18.175, 11)" width="36.35" height="22"><text text-decoration="none" x="0.0031250000000007105" fill="#617282" font-size="12pt" font-family="noto_regular"  y="17">Jalan</text><text text-decoration="none" x="36.346875" fill="#4b4b4b" font-size="10pt" font-family="noto_regular"  y="17"></text></g></g><g id="ZOV4rTm9cJn"><g><path d="M 530,1595 L 560.0000013618439,1595.000000980715 Q 560.0000032498293,1595.000000980715 570,1595 Q 580,1595 580.0000013618439,1595 L 610,1595" fill="none" stroke="#7E7E7E" stroke-width="2" stroke-linecap="round" stroke-linejoin="round" stroke-dasharray="0 0"/></g></g><g id="yEYHSiKAFz4"><g><path d="M 1991,841 L 1991,1260" fill="none" stroke="#7E7E7E" stroke-width="2" stroke-linecap="round" stroke-linejoin="round" stroke-dasharray="0 0"/></g></g><g id="veGn5mdUkwI"><g transform="translate(690 1170)"><rect x="0" y="0" width="60" height="40" fill="rgba(255,255,255,0.01)" stroke="rgba(255,255,255,0.01)"  stroke-dasharray="0 0"/></g><g transform="translate(700, 1180) rotate(0, 0, 0)" width="30.24" height="18"><text text-decoration="none" x="0" fill="#4b4b4b" font-size="10pt" font-family="noto_regular"  y="14">(1,N)</text><text text-decoration="none" x="30.234375" fill="#4b4b4b" font-size="10pt" font-family="noto_regular"  y="14"></text></g></g><g id="594QSgKNDC6"><g transform="translate(690 1029.9999995872927)"><rect x="0" y="0" width="60" height="40" fill="rgba(255,255,255,0.01)" stroke="rgba(255,255,255,0.01)"  stroke-dasharray="0 0"/></g><g transform="translate(700, 1039.9999995872927) rotate(0, 0, 0)" width="30.24" height="18"><text text-decoration="none" x="0" fill="#4b4b4b" font-size="10pt" font-family="noto_regular"  y="14">(0,N)</text><text text-decoration="none" x="30.234375" fill="#4b4b4b" font-size="10pt" font-family="noto_regular"  y="14"></text></g></g><g id="SndhfmB3kWv"><g transform="translate(950 1300)"><rect x="0" y="0" width="59.99999999999991" height="40" fill="rgba(255,255,255,0.01)" stroke="rgba(255,255,255,0.01)"  stroke-dasharray="0 0"/></g><g transform="translate(960, 1310) rotate(0, 0, 0)" width="33.72" height="18"><text text-decoration="none" x="0" fill="#4b4b4b" font-size="10pt" font-family="noto_regular"  y="14">(0&#160;</text><text text-decoration="none" x="15.53125" fill="#4b4b4b" font-size="10pt" font-family="noto_regular"  y="14">,N)</text><text text-decoration="none" x="33.71875" fill="#4b4b4b" font-size="10pt" font-family="noto_regular"  y="14"></text></g></g><g id="cckHZ8RzQ1I"><g transform="translate(1130.0000000000002 1300)"><rect x="0" y="0" width="59.99999999999991" height="40" fill="rgba(255,255,255,0.01)" stroke="rgba(255,255,255,0.01)"  stroke-dasharray="0 0"/></g><g transform="translate(1140.0000000000002, 1310) rotate(0, 0, 0)" width="33.72" height="18"><text text-decoration="none" x="0" fill="#4b4b4b" font-size="10pt" font-family="noto_regular"  y="14">(0&#160;</text><text text-decoration="none" x="15.53125" fill="#4b4b4b" font-size="10pt" font-family="noto_regular"  y="14">,N)</text><text text-decoration="none" x="33.71875" fill="#4b4b4b" font-size="10pt" font-family="noto_regular"  y="14"></text></g></g><g id="Gf3a0FSIX9A"><g transform="translate(690.0000010598177 1500.0000033823112)"><rect x="0" y="0" width="79.9999989401823" height="40" fill="rgba(255,255,255,0.01)" stroke="rgba(255,255,255,0.01)"  stroke-dasharray="0 0"/></g><g transform="translate(700.0000010598177, 1510.0000033823112) rotate(0, 0, 0)" width="30.93" height="18"><text text-decoration="none" x="0" fill="#4b4b4b" font-size="10pt" font-family="noto_regular"  y="14">(1&#160;</text><text text-decoration="none" x="15.53125" fill="#4b4b4b" font-size="10pt" font-family="noto_regular"  y="14">,1)</text><text text-decoration="none" x="30.921875" fill="#4b4b4b" font-size="10pt" font-family="noto_regular"  y="14"></text></g></g><g id="fu7qfbGG2hr"><g transform="translate(690 1649.9999999999998)"><rect x="0" y="0" width="100" height="40" fill="rgba(255,255,255,0.01)" stroke="rgba(255,255,255,0.01)"  stroke-dasharray="0 0"/></g><g transform="translate(700, 1659.9999999999998) rotate(0, 0, 0)" width="30.93" height="18"><text text-decoration="none" x="0" fill="#4b4b4b" font-size="10pt" font-family="noto_regular"  y="14">(0&#160;</text><text text-decoration="none" x="15.53125" fill="#4b4b4b" font-size="10pt" font-family="noto_regular"  y="14">,1)</text><text text-decoration="none" x="30.921875" fill="#4b4b4b" font-size="10pt" font-family="noto_regular"  y="14"></text></g></g><g id="37BcKZO9fUd"><g transform="translate(2200 1660)"><rect x="0" y="0" width="59.99999999999991" height="40" fill="rgba(255,255,255,0.01)" stroke="rgba(255,255,255,0.01)"  stroke-dasharray="0 0"/></g><g transform="translate(2210, 1670) rotate(0, 0, 0)" width="33.72" height="18"><text text-decoration="none" x="0" fill="#4b4b4b" font-size="10pt" font-family="noto_regular"  y="14">(0&#160;</text><text text-decoration="none" x="15.53125" fill="#4b4b4b" font-size="10pt" font-family="noto_regular"  y="14">,N)</text><text text-decoration="none" x="33.71875" fill="#4b4b4b" font-size="10pt" font-family="noto_regular"  y="14"></text></g></g><g id="4eQiLlzUCQd"><g transform="translate(2200 1520)"><rect x="0" y="0" width="59.99999999999991" height="40" fill="rgba(255,255,255,0.01)" stroke="rgba(255,255,255,0.01)"  stroke-dasharray="0 0"/></g><g transform="translate(2210, 1530) rotate(0, 0, 0)" width="33.72" height="18"><text text-decoration="none" x="0" fill="#4b4b4b" font-size="10pt" font-family="noto_regular"  y="14">(0&#160;</text><text text-decoration="none" x="15.53125" fill="#4b4b4b" font-size="10pt" font-family="noto_regular"  y="14">,N)</text><text text-decoration="none" x="33.71875" fill="#4b4b4b" font-size="10pt" font-family="noto_regular"  y="14"></text></g></g><g id="K13YnrNLPkM"><g transform="translate(1430 1160)"><rect x="0" y="0" width="59.99999999999991" height="40" fill="rgba(255,255,255,0.01)" stroke="rgba(255,255,255,0.01)"  stroke-dasharray="0 0"/></g><g transform="translate(1440, 1170) rotate(0, 0, 0)" width="33.72" height="18"><text text-decoration="none" x="0" fill="#4b4b4b" font-size="10pt" font-family="noto_regular"  y="14">(1&#160;</text><text text-decoration="none" x="15.53125" fill="#4b4b4b" font-size="10pt" font-family="noto_regular"  y="14">,N)</text><text text-decoration="none" x="33.71875" fill="#4b4b4b" font-size="10pt" font-family="noto_regular"  y="14"></text></g></g><g id="fMxfOxGu4E6"><g transform="translate(1430.0000000000005 1030)"><rect x="0" y="0" width="59.99999999999991" height="40" fill="rgba(255,255,255,0.01)" stroke="rgba(255,255,255,0.01)"  stroke-dasharray="0 0"/></g><g transform="translate(1440.0000000000005, 1040) rotate(0, 0, 0)" width="33.72" height="18"><text text-decoration="none" x="0" fill="#4b4b4b" font-size="10pt" font-family="noto_regular"  y="14">(0&#160;</text><text text-decoration="none" x="15.53125" fill="#4b4b4b" font-size="10pt" font-family="noto_regular"  y="14">,N)</text><text text-decoration="none" x="33.71875" fill="#4b4b4b" font-size="10pt" font-family="noto_regular"  y="14"></text></g></g><g id="YmQ7dmZi1iQ"><g transform="translate(299.9999999999999 1180)"><ellipse cx="100.00000000000311" cy="44.99999999999996" rx="100.00000000000311" ry="44.99999999999996" fill="white" stroke="#FAC065" stroke-width="2" stroke-linecap="round" stroke-linejoin="round" stroke-dasharray="0 0"/><ellipse cx="100.00000000000311" cy="44.99999999999996" rx="95.00000000000311" ry="39.99999999999996" fill="white" stroke="#FAC065" stroke-width="2" stroke-linecap="round" stroke-linejoin="round" stroke-dasharray="0 0"/></g><g transform="translate(374.79500000000303, 1216) rotate(0, 25.205, 9)" width="50.41" height="18"><text text-decoration="none" x="0.0018749999999982947" fill="#617282" font-size="10pt" font-family="noto_regular"  y="14">Telepon</text><text text-decoration="none" x="50.408125" fill="#4b4b4b" font-size="10pt" font-family="noto_regular"  y="14"></text></g></g><g id="fNib2eHKfrk"><g transform="translate(1079.9999999999998 1450)"><ellipse cx="100.00000136184394" cy="45.000001307619854" rx="100.00000136184394" ry="45.000001307619854" fill="white" stroke="#F1CC84" stroke-width="2" stroke-linecap="round" stroke-linejoin="round" stroke-dasharray="0 0"/></g><g transform="translate(1104.1450013618437, 1484.0000013076199) rotate(0, 75.855, 11)" width="151.71" height="22"><text text-decoration="none" x="0.003437500000003979" fill="#617282" font-size="12pt" font-family="noto_regular"  y="17">TanggalBerakhirIzin</text><text text-decoration="none" x="151.70656250000002" fill="#4b4b4b" font-size="10pt" font-family="noto_regular"  y="17"></text></g></g><g id="ye0OYaYLkwh"><g><path d="M 1080,1495 L 1070,1495 L 1070,1390" fill="none" stroke="#7E7E7E" stroke-width="2" stroke-linecap="round" stroke-linejoin="round" stroke-dasharray="0 0"/></g></g></svg>